<mxfile host="app.diagrams.net" modified="2020-11-19T15:16:50.569Z" agent="5.0 (Windows NT 10.0; Win64; x64) AppleWebKit/537.36 (KHTML, like Gecko) Chrome/86.0.4240.198 Safari/537.36" etag="W6LJZOUpRoMmULlcK2Wy" version="13.9.7" type="github">
  <diagram id="C5RBs43oDa-KdzZeNtuy" name="Page-1">
    <mxGraphModel dx="1187" dy="736" grid="1" gridSize="10" guides="1" tooltips="1" connect="1" arrows="1" fold="1" page="1" pageScale="1" pageWidth="827" pageHeight="1169" math="0" shadow="0">
      <root>
        <mxCell id="WIyWlLk6GJQsqaUBKTNV-0" />
        <mxCell id="WIyWlLk6GJQsqaUBKTNV-1" parent="WIyWlLk6GJQsqaUBKTNV-0" />
        <mxCell id="MxyfuENbYduMKJOF5cX6-17" value="Scheduler" style="rounded=1;whiteSpace=wrap;html=1;fontSize=24;glass=0;strokeWidth=1;shadow=0;fontStyle=1" parent="WIyWlLk6GJQsqaUBKTNV-1" vertex="1">
          <mxGeometry x="80" y="40" width="690" height="40" as="geometry" />
        </mxCell>
        <mxCell id="MxyfuENbYduMKJOF5cX6-45" value="&amp;nbsp;H&amp;nbsp; &amp;nbsp; &amp;nbsp; &amp;nbsp;= History sent from the Transaction Manager (TM) as a string&lt;br&gt;&amp;nbsp;Op&amp;nbsp; &amp;nbsp; &amp;nbsp;= one individual operation from H&lt;br&gt;&amp;nbsp;Q&amp;nbsp; &amp;nbsp; &amp;nbsp; &amp;nbsp;= Receiving FIFO queue&lt;br&gt;&amp;nbsp;HLog = list of operations sent to the Data Manager (DM) from the scheduler (string)&lt;br&gt;&lt;br&gt;&lt;span style=&quot;text-align: center ; font-size: 12px&quot;&gt;&lt;font style=&quot;font-size: 12px&quot;&gt;&lt;span style=&quot;color: rgb(0 , 0 , 0)&quot;&gt;&lt;b&gt;&amp;nbsp;* &lt;/b&gt;&lt;i&gt;Defined on a &lt;/i&gt;&lt;/span&gt;&lt;i&gt;&lt;font color=&quot;#000000&quot; style=&quot;font-size: 12px&quot;&gt;separate&lt;/font&gt;&lt;span style=&quot;color: rgb(0 , 0 , 0)&quot;&gt;&amp;nbsp;page&lt;/span&gt;&lt;/i&gt;&lt;br&gt;&lt;/font&gt;&lt;/span&gt;" style="text;html=1;align=left;verticalAlign=middle;whiteSpace=wrap;rounded=1;fontSize=14;labelBorderColor=none;spacingTop=2;spacingLeft=0;spacingBottom=0;spacingRight=0;spacing=2;perimeterSpacing=0;strokeWidth=1;labelPadding=-1;fillColor=#f5f5f5;strokeColor=#666666;fontColor=#333333;" parent="WIyWlLk6GJQsqaUBKTNV-1" vertex="1">
          <mxGeometry x="80" y="100" width="690" height="90" as="geometry" />
        </mxCell>
        <mxCell id="WIyWlLk6GJQsqaUBKTNV-3" value="Transaction Manager" style="rounded=1;whiteSpace=wrap;html=1;fontSize=12;glass=0;strokeWidth=1;shadow=0;container=0;" parent="WIyWlLk6GJQsqaUBKTNV-1" vertex="1">
          <mxGeometry x="323" y="240" width="160" height="40" as="geometry" />
        </mxCell>
        <mxCell id="jcFwn0k5lUS_TI383dsa-9" value="Get Op from H" style="rounded=1;whiteSpace=wrap;html=1;fontSize=12;glass=0;strokeWidth=1;shadow=0;container=0;" parent="WIyWlLk6GJQsqaUBKTNV-1" vertex="1">
          <mxGeometry x="343" y="330" width="120" height="30" as="geometry" />
        </mxCell>
        <mxCell id="jcFwn0k5lUS_TI383dsa-33" value="Exit" style="shape=hexagon;perimeter=hexagonPerimeter2;whiteSpace=wrap;html=1;fixedSize=1;align=center;container=0;" parent="WIyWlLk6GJQsqaUBKTNV-1" vertex="1">
          <mxGeometry x="365.5" y="966" width="75" height="30" as="geometry" />
        </mxCell>
        <mxCell id="ZSIssIE1yZMaLI59TzmF-0" value="" style="endArrow=classic;html=1;" edge="1" parent="WIyWlLk6GJQsqaUBKTNV-1" source="WIyWlLk6GJQsqaUBKTNV-3" target="jcFwn0k5lUS_TI383dsa-9">
          <mxGeometry x="300" y="240" as="geometry">
            <mxPoint x="480" y="340" as="sourcePoint" />
            <mxPoint x="580" y="340" as="targetPoint" />
          </mxGeometry>
        </mxCell>
        <mxCell id="ZSIssIE1yZMaLI59TzmF-1" value="H" style="edgeLabel;resizable=0;html=1;align=center;verticalAlign=middle;container=0;" connectable="0" vertex="1" parent="ZSIssIE1yZMaLI59TzmF-0">
          <mxGeometry relative="1" as="geometry" />
        </mxCell>
        <mxCell id="ZSIssIE1yZMaLI59TzmF-2" value="pop Op from Q" style="rounded=1;whiteSpace=wrap;html=1;fontSize=12;glass=0;strokeWidth=1;shadow=0;container=0;" vertex="1" parent="WIyWlLk6GJQsqaUBKTNV-1">
          <mxGeometry x="343" y="578" width="120" height="50" as="geometry" />
        </mxCell>
        <mxCell id="ZSIssIE1yZMaLI59TzmF-4" value="" style="endArrow=classic;html=1;entryX=0.5;entryY=0;entryDx=0;entryDy=0;exitX=0.5;exitY=1;exitDx=0;exitDy=0;" edge="1" parent="WIyWlLk6GJQsqaUBKTNV-1" source="ZSIssIE1yZMaLI59TzmF-25" target="jcFwn0k5lUS_TI383dsa-33">
          <mxGeometry x="300" y="240" width="50" height="50" as="geometry">
            <mxPoint x="403" y="918" as="sourcePoint" />
            <mxPoint x="413" y="866" as="targetPoint" />
          </mxGeometry>
        </mxCell>
        <mxCell id="ZSIssIE1yZMaLI59TzmF-5" value="push Op to Q" style="rounded=1;whiteSpace=wrap;html=1;fontSize=12;glass=0;strokeWidth=1;shadow=0;container=0;" vertex="1" parent="WIyWlLk6GJQsqaUBKTNV-1">
          <mxGeometry x="343" y="400" width="120" height="50" as="geometry" />
        </mxCell>
        <mxCell id="ZSIssIE1yZMaLI59TzmF-9" style="edgeStyle=orthogonalEdgeStyle;rounded=0;orthogonalLoop=1;jettySize=auto;html=1;exitX=0.5;exitY=1;exitDx=0;exitDy=0;" edge="1" parent="WIyWlLk6GJQsqaUBKTNV-1" source="jcFwn0k5lUS_TI383dsa-9" target="ZSIssIE1yZMaLI59TzmF-5">
          <mxGeometry x="300" y="240" as="geometry" />
        </mxCell>
        <mxCell id="ZSIssIE1yZMaLI59TzmF-6" value="Last Op from H?" style="rhombus;whiteSpace=wrap;html=1;container=0;" vertex="1" parent="WIyWlLk6GJQsqaUBKTNV-1">
          <mxGeometry x="368" y="470" width="70" height="70" as="geometry" />
        </mxCell>
        <mxCell id="ZSIssIE1yZMaLI59TzmF-10" style="edgeStyle=orthogonalEdgeStyle;rounded=0;orthogonalLoop=1;jettySize=auto;html=1;exitX=0.5;exitY=1;exitDx=0;exitDy=0;entryX=0.5;entryY=0;entryDx=0;entryDy=0;" edge="1" parent="WIyWlLk6GJQsqaUBKTNV-1" source="ZSIssIE1yZMaLI59TzmF-5" target="ZSIssIE1yZMaLI59TzmF-6">
          <mxGeometry x="300" y="240" as="geometry" />
        </mxCell>
        <mxCell id="ZSIssIE1yZMaLI59TzmF-12" value="" style="endArrow=classic;html=1;exitX=0.5;exitY=1;exitDx=0;exitDy=0;entryX=0.5;entryY=0;entryDx=0;entryDy=0;edgeStyle=orthogonalEdgeStyle;" edge="1" parent="WIyWlLk6GJQsqaUBKTNV-1" source="ZSIssIE1yZMaLI59TzmF-6" target="ZSIssIE1yZMaLI59TzmF-2">
          <mxGeometry x="300" y="240" as="geometry">
            <mxPoint x="480" y="650" as="sourcePoint" />
            <mxPoint x="580" y="650" as="targetPoint" />
            <Array as="points">
              <mxPoint x="403" y="550" />
              <mxPoint x="403" y="550" />
            </Array>
          </mxGeometry>
        </mxCell>
        <mxCell id="ZSIssIE1yZMaLI59TzmF-13" value="Yes" style="edgeLabel;resizable=0;html=1;align=center;verticalAlign=middle;container=0;" connectable="0" vertex="1" parent="ZSIssIE1yZMaLI59TzmF-12">
          <mxGeometry relative="1" as="geometry" />
        </mxCell>
        <mxCell id="ZSIssIE1yZMaLI59TzmF-16" value="" style="endArrow=classic;html=1;exitX=0;exitY=0.5;exitDx=0;exitDy=0;edgeStyle=orthogonalEdgeStyle;entryX=0;entryY=0.5;entryDx=0;entryDy=0;" edge="1" parent="WIyWlLk6GJQsqaUBKTNV-1" source="ZSIssIE1yZMaLI59TzmF-6" target="jcFwn0k5lUS_TI383dsa-9">
          <mxGeometry x="300" y="240" as="geometry">
            <mxPoint x="480" y="550" as="sourcePoint" />
            <mxPoint x="230" y="505" as="targetPoint" />
            <Array as="points">
              <mxPoint x="300" y="505" />
              <mxPoint x="300" y="345" />
            </Array>
          </mxGeometry>
        </mxCell>
        <mxCell id="ZSIssIE1yZMaLI59TzmF-17" value="No" style="edgeLabel;resizable=0;html=1;align=center;verticalAlign=middle;container=0;" connectable="0" vertex="1" parent="ZSIssIE1yZMaLI59TzmF-16">
          <mxGeometry relative="1" as="geometry" />
        </mxCell>
        <mxCell id="ZSIssIE1yZMaLI59TzmF-18" value="Process Op &lt;b&gt;&lt;font style=&quot;font-size: 14px&quot;&gt;*&lt;/font&gt;&lt;/b&gt;" style="rounded=1;whiteSpace=wrap;html=1;fontSize=12;glass=0;strokeWidth=1;shadow=0;container=0;" vertex="1" parent="WIyWlLk6GJQsqaUBKTNV-1">
          <mxGeometry x="343" y="680" width="120" height="50" as="geometry" />
        </mxCell>
        <mxCell id="ZSIssIE1yZMaLI59TzmF-22" style="edgeStyle=orthogonalEdgeStyle;rounded=0;orthogonalLoop=1;jettySize=auto;html=1;exitX=0.5;exitY=1;exitDx=0;exitDy=0;entryX=0.5;entryY=0;entryDx=0;entryDy=0;" edge="1" parent="WIyWlLk6GJQsqaUBKTNV-1" source="ZSIssIE1yZMaLI59TzmF-2" target="ZSIssIE1yZMaLI59TzmF-18">
          <mxGeometry x="300" y="240" as="geometry" />
        </mxCell>
        <mxCell id="ZSIssIE1yZMaLI59TzmF-19" value="Last Op from Q?" style="rhombus;whiteSpace=wrap;html=1;container=0;" vertex="1" parent="WIyWlLk6GJQsqaUBKTNV-1">
          <mxGeometry x="368" y="760" width="70" height="70" as="geometry" />
        </mxCell>
        <mxCell id="ZSIssIE1yZMaLI59TzmF-23" style="edgeStyle=orthogonalEdgeStyle;rounded=0;orthogonalLoop=1;jettySize=auto;html=1;exitX=0.5;exitY=1;exitDx=0;exitDy=0;entryX=0.5;entryY=0;entryDx=0;entryDy=0;" edge="1" parent="WIyWlLk6GJQsqaUBKTNV-1" source="ZSIssIE1yZMaLI59TzmF-18" target="ZSIssIE1yZMaLI59TzmF-19">
          <mxGeometry x="300" y="240" as="geometry" />
        </mxCell>
        <mxCell id="ZSIssIE1yZMaLI59TzmF-20" value="" style="endArrow=classic;html=1;exitX=0;exitY=0.5;exitDx=0;exitDy=0;entryX=0;entryY=0.5;entryDx=0;entryDy=0;edgeStyle=orthogonalEdgeStyle;" edge="1" parent="WIyWlLk6GJQsqaUBKTNV-1" source="ZSIssIE1yZMaLI59TzmF-19" target="ZSIssIE1yZMaLI59TzmF-2">
          <mxGeometry x="300" y="240" as="geometry">
            <mxPoint x="480" y="550" as="sourcePoint" />
            <mxPoint x="580" y="550" as="targetPoint" />
            <Array as="points">
              <mxPoint x="300" y="795" />
              <mxPoint x="300" y="603" />
            </Array>
          </mxGeometry>
        </mxCell>
        <mxCell id="ZSIssIE1yZMaLI59TzmF-21" value="No" style="edgeLabel;resizable=0;html=1;align=center;verticalAlign=middle;container=0;" connectable="0" vertex="1" parent="ZSIssIE1yZMaLI59TzmF-20">
          <mxGeometry relative="1" as="geometry" />
        </mxCell>
        <mxCell id="ZSIssIE1yZMaLI59TzmF-25" value="Save Logs" style="rounded=1;whiteSpace=wrap;html=1;fontSize=12;glass=0;strokeWidth=1;shadow=0;container=0;" vertex="1" parent="WIyWlLk6GJQsqaUBKTNV-1">
          <mxGeometry x="343" y="868" width="120" height="50" as="geometry" />
        </mxCell>
        <mxCell id="ZSIssIE1yZMaLI59TzmF-26" value="" style="endArrow=classic;html=1;exitX=0.5;exitY=1;exitDx=0;exitDy=0;entryX=0.5;entryY=0;entryDx=0;entryDy=0;edgeStyle=orthogonalEdgeStyle;" edge="1" parent="WIyWlLk6GJQsqaUBKTNV-1" source="ZSIssIE1yZMaLI59TzmF-19" target="ZSIssIE1yZMaLI59TzmF-25">
          <mxGeometry x="300" y="240" as="geometry">
            <mxPoint x="191" y="755" as="sourcePoint" />
            <mxPoint x="353" y="635" as="targetPoint" />
          </mxGeometry>
        </mxCell>
        <mxCell id="ZSIssIE1yZMaLI59TzmF-27" value="Yes" style="edgeLabel;resizable=0;html=1;align=center;verticalAlign=middle;container=0;" connectable="0" vertex="1" parent="ZSIssIE1yZMaLI59TzmF-26">
          <mxGeometry relative="1" as="geometry" />
        </mxCell>
        <mxCell id="ZSIssIE1yZMaLI59TzmF-30" value="" style="verticalLabelPosition=bottom;verticalAlign=top;html=1;shape=offPageConnector;rounded=0;size=0.5;" vertex="1" parent="WIyWlLk6GJQsqaUBKTNV-1">
          <mxGeometry x="170" y="700" width="60" height="60" as="geometry" />
        </mxCell>
      </root>
    </mxGraphModel>
  </diagram>
</mxfile>
